<?xml version='1.0' encoding='UTF-8'?>
<svg xmlns="http://www.w3.org/2000/svg" id="Layer_1" data-name="Layer 1" viewBox="0 350 1028.16 460">
  <defs>
    <style>
      .cls-1 {
        fill: #fff;
      }
    </style>
  </defs>
  <rect x="0" y="300" width="1030" height="600"/>
  <path d="M.48,0h1027.68v1370.88H0V0h.48ZM123.09,481.84l-62.46,57.78-13.6,12.49c-6.69,6.15-12.82,12.45-19.41,19.62l78.85-.78-.55,9.91-.78,20.61c-.29,7.6.59,14.91-.46,22.63l-.9,6.67-.26,31.38-.61,12.98-.25,48.7.02,7.67.26,56.67.79,14.38c.27,4.93.31,9.56.62,14.4l.98,15.32.92,15.42c.65,10.89.76,21.75.05,32.65l-.89,13.48-1.03,13.39c-.4,5.16-.64,9.92-.67,15.11l26.97,1.78,35.1.86c29.53.72,58.59.86,88.11.03l33.7-.95,33.59-.96,35.4-1.06,45.7-.7,27.69-.15,26.04-.03,64.38.45,156.3.09,19.3.86c5.15.23,10.15.53,15.33.6l54.06.77,33.4.7c6.35.13,13.19.81,18.85.7l.86-19.06.92-14.42.78-55.18.84-22.55,2.06-23.58.93-25.02.88-26.17.63-11.72,1.57-18.31.43-64.83c.63-4.7,1.44-9.41,1.46-14.02l.29-60.27c26.71-.57,52.12.5,79.4,1.34l-40.3-40.02-11.71-10.55-19.58-18.75-15.89-14.9-17.74-16.8-21.57-20.71-48.38-45.59c-10.72-9.23-20.1-18.7-30.22-28.49l-25.91-25.06-56.21,50.58,20.29,23.5,34.61-30.23,34.84,33.35,121.66,115.11-34.11.24-1.18,56.54-.66,21.45c-.65,21.11-1.73,41.46-1.5,62.43.1,9.01-.23,17.5-.64,26.4l-2.72,58.58c-.05,1.02-.64,2.94-1.43,3.17-.59.17-2.34.35-3.12.33l-62.98-1.72c-91.13-2.48-181.56-2.59-272.92-1.7l-86.68.84-52.72.29-107.4,1.7-69.16.47.34-93.97c.02-6.22,1.11-12.26.71-18.49-.86-13.44,1.19-26,1.36-39.41l1.03-79.24-29.8-.52c16.7-17.28,33.75-32.19,51.16-48.11l40.07-36.65,48.45-44.69,19.45-17.11,89.4,81.02,70.8,66.52.33,26.6,69.61.38c.7,0-.59-2.3-1.11-2.8l-68.25-65.1-44.21-42.29-68.25-63.21-50.61-46.66c-7,8.57-14.6,15.46-22.42,22.91l-19.19,18.31-83.02,75.19-18.13,17.17ZM711.98,669.41c-1.24-.02-2.03,4.14-.9,4.22,4.74.35,8.86,1.63,12.29,4.64.66,3.42.95,7.04-.08,10.3l-13.48,42.51c-11.65,5.66-24.66,3.69-33.78-5.65-5.93-6.07-9.6-14.12-10.45-23.04-3.94-41.07,19.89-95.62,65.73-97.83,10.88-.52,20.85,3.19,26.28,12.51,3.82,6.55,4.7,15.73,5.01,22.91.4.92,2.96,1.89,3.74,1.35.62-.44,1.65-1.92,1.84-2.69l10.28-42.29c-7.32-2.69-6.45,7.45-18.2,3.76-12.74-4-24.99-5.16-38.37-4.23-27.24,1.89-52.35,13.05-70.61,33.35-11.12,12.37-17.18,27.11-18.94,43.67-3.42,32.09,13.33,62.96,46.64,67.97,20.64,3.1,40.79.6,60.62-6.11,1.49-2.15,2.83-5.22,3.66-7.83l14.18-44.18c3.61-11.25,16.06-4.39,13.62-12.44l-59.08-.91ZM486.71,400.44l21.34,23.36,33.24-29.61,37.56,35.93,31.37,28.26,55.08,53.29,33.55,30.87.03,25.89,71.44-.14-52.66-50.38-57.67-54.64-39.62-38.2-40.48-38.24-29.28-28.34-9.33-8.6-22.32,21.25-32.24,29.31ZM349.03,399.32l21.58,22.92,32.72-30.01,37.81,35.53,53.43,50.18,68.81,63.44-.35,26.1,70.48.09-36.56-35.56c-12.86-12.51-25.39-24.14-38.84-36.04l-53.52-51.13-64.86-61.77-36.93-35.76-32.75,31.34-21,20.68ZM495.45,738.1c1.11,0,2.94-1.44,3.08-2.38.53-3.66-8.26-.62-12.41-6.16-5.83-7.79,1.22-22.48,4.61-33.5l23.14-75.19,32.05,68.84,21.29,47.79c.42,1.33,2.23,2.71,3.48,2.59.88-.09,1.9-1.63,2.29-2.91l26.58-87.53c3.49-11.5,6.61-22.31,10.78-33.37,7.2-19.09,25.47-10.63,20.83-18.28l-40.56-.31c-1.08,0-2.43.49-2.94.88s-.71,2.73-.1,2.89l2.76.7c3.25.82,7.41,1.95,8.74,4.16,1.57,2.61,2.7,7.09,1.78,10.14l-22.42,73.96-42.26-93.15c-6.94.24-44.89-1.09-47.71,2.45-3.31,4.16,13.39-.61,19.23,12.49l-32.44,104.84c-2.69,8.71-9.76,15.21-18.01,16.77l-4.25.8c-.73.14-.67,2.56-.56,3.56l43.01-.06ZM372.34,741.11c15.89-1.94,29.67-8.51,41.6-18.98,22.52-19.77,42.28-50.86,41.04-81.65-1.06-26.24-22.01-46.07-47.95-45.89-10.97.08-20.74,2.95-30.72,7.3-34.17,14.86-59.29,46.28-64.23,83.37-1.56,11.66.37,22.29,4.93,32.45,10.74,23.94,32.39,26.21,55.33,23.41ZM203.17,602.78c3.45.44,7.19,1.56,8.52,3.96,1.04,1.88,1.7,6.15.86,8.86l-25.06,81.42-9.16,27.54c-5.26,15.81-22.77,8.22-21.26,15.81l51.25-.11,62-.62,17.1-39.48c-2.86-1.35-5.17-.24-6.87,1.87-15.66,19.43-38.45,30.17-63.53,29.57-2.69-.06-6.12-3.06-5.62-5.71,2.06-10.88,5.23-20.35,8.67-30.84l26.13-79.8c4.04-12.34,17.47-11.79,20.93-13.38.63-.29.27-3.1-.99-3.12l-64.17-.79c-1.43-.02-3.14.89-3.24,1.64s.14,2.64.88,2.73l3.57.46Z" />
  <path class="cls-1" d="M123.09,481.84l18.13-17.17,83.02-75.19,19.19-18.31c7.81-7.45,15.42-14.34,22.42-22.91l50.61,46.66,68.25,63.21,44.21,42.29,68.25,65.1c.52.5,1.81,2.8,1.11,2.8l-69.61-.38-.33-26.6-70.8-66.52-89.4-81.02-19.45,17.11-48.45,44.69-40.07,36.65c-17.41,15.93-34.46,30.84-51.16,48.11l29.8.52-1.03,79.24c-.17,13.41-2.22,25.97-1.36,39.41.4,6.23-.69,12.28-.71,18.49l-.34,93.97,69.16-.47,107.4-1.7,52.72-.29,86.68-.84c91.36-.89,181.79-.78,272.92,1.7l62.98,1.72c.78.02,2.53-.16,3.12-.33.79-.23,1.38-2.15,1.43-3.17l2.72-58.58c.41-8.9.74-17.4.64-26.4-.24-20.98.85-41.32,1.5-62.43l.66-21.45,1.18-56.54,34.11-.24-121.66-115.11-34.84-33.35-34.61,30.23-20.29-23.5,56.21-50.58,25.91,25.06c10.12,9.78,19.5,19.25,30.22,28.49l48.38,45.59,21.57,20.71,17.74,16.8,15.89,14.9,19.58,18.75,11.71,10.55,40.3,40.02c-27.28-.84-52.69-1.91-79.4-1.34l-.29,60.27c-.02,4.61-.83,9.32-1.46,14.02l-.43,64.83-1.57,18.31-.63,11.72-.88,26.17-.93,25.02-2.06,23.58-.84,22.55-.78,55.18-.92,14.42-.86,19.06c-5.66.11-12.5-.57-18.85-.7l-33.4-.7-54.06-.77c-5.19-.07-10.18-.37-15.33-.6l-19.3-.86-156.3-.09-64.38-.45-26.04.03-27.69.15-45.7.7-35.4,1.06-33.59.96-33.7.95c-29.53.84-58.58.69-88.11-.03l-35.1-.86-26.97-1.78c.03-5.19.27-9.96.67-15.11l1.03-13.39.89-13.48c.72-10.9.61-21.75-.05-32.65l-.92-15.42-.98-15.32c-.31-4.84-.35-9.47-.62-14.4l-.79-14.38-.26-56.67-.02-7.67.25-48.7.61-12.98.26-31.38.9-6.67c1.05-7.72.17-15.03.46-22.63l.78-20.61.55-9.91-78.85.78c6.59-7.17,12.72-13.47,19.41-19.62l13.6-12.49,62.46-57.78Z" />
  <polygon class="cls-1" points="486.71 400.44 518.95 371.13 541.27 349.88 550.6 358.48 579.89 386.82 620.36 425.06 659.99 463.26 717.65 517.9 770.31 568.29 698.87 568.42 698.84 542.53 665.29 511.66 610.21 458.37 578.85 430.11 541.29 394.19 508.05 423.79 486.71 400.44" />
  <path class="cls-1" d="M349.03,399.32l21-20.68,32.75-31.34,36.93,35.76,64.86,61.77,53.52,51.13c13.45,11.91,25.98,23.53,38.84,36.04l36.56,35.56-70.48-.09.35-26.1-68.81-63.44-53.43-50.18-37.81-35.53-32.72,30.01-21.58-22.92Z" />
  <path class="cls-1" d="M372.34,741.11c-22.94,2.8-44.59.53-55.33-23.41-4.56-10.17-6.49-20.8-4.93-32.45,4.95-37.09,30.07-68.51,64.23-83.37,9.98-4.34,19.75-7.22,30.72-7.3,25.94-.18,46.9,19.65,47.95,45.89,1.24,30.79-18.52,61.89-41.04,81.65-11.93,10.47-25.71,17.04-41.6,18.98ZM356.75,731.66c18.16,6.65,33.84-11.47,42.08-25.59,12.67-21.71,20.63-45.6,23.12-70.72.93-9.39-.38-27.13-11.6-30.58s-21.75,1.25-29.67,9.3c-18.25,18.55-26.24,46.36-32.47,71.18-3.28,13.08-8.44,40.21,8.53,46.42Z" />
  <path class="cls-1" d="M711.98,669.41l59.08.91c2.44,8.05-10,1.18-13.62,12.44l-14.18,44.18c-.84,2.61-2.17,5.69-3.66,7.83-19.84,6.71-39.98,9.22-60.62,6.11-33.31-5.01-50.06-35.88-46.64-67.97,1.76-16.56,7.82-31.3,18.94-43.67,18.25-20.3,43.37-31.46,70.61-33.35,13.38-.93,25.63.23,38.37,4.23,11.75,3.69,10.89-6.45,18.2-3.76l-10.28,42.29c-.19.77-1.22,2.25-1.84,2.69-.78.54-3.34-.43-3.74-1.35-.31-7.18-1.19-16.36-5.01-22.91-5.43-9.32-15.41-13.03-26.28-12.51-45.85,2.21-69.67,56.76-65.73,97.83.86,8.92,4.52,16.96,10.45,23.04,9.12,9.34,22.13,11.31,33.78,5.65l13.48-42.51c1.03-3.26.74-6.88.08-10.3-3.43-3.01-7.56-4.29-12.29-4.64-1.13-.08-.34-4.24.9-4.22Z" />
  <path class="cls-1" d="M495.45,738.1l-43.01.06c-.12-1-.17-3.42.56-3.56l4.25-.8c8.26-1.56,15.32-8.07,18.01-16.77l32.44-104.84c-5.85-13.1-22.54-8.32-19.23-12.49,2.82-3.54,40.77-2.22,47.71-2.45l42.26,93.15,22.42-73.96c.92-3.05-.21-7.53-1.78-10.14-1.33-2.21-5.49-3.34-8.74-4.16l-2.76-.7c-.61-.15-.4-2.5.1-2.89s1.86-.89,2.94-.88l40.56.31c4.63,7.65-13.64-.81-20.83,18.28-4.17,11.06-7.29,21.88-10.78,33.37l-26.58,87.53c-.39,1.28-1.42,2.83-2.29,2.91-1.26.12-3.06-1.26-3.48-2.59l-21.29-47.79-32.05-68.84-23.14,75.19c-3.39,11.02-10.43,25.71-4.61,33.5,4.15,5.55,12.94,2.5,12.41,6.16-.14.94-1.97,2.38-3.08,2.38Z" />
  <path class="cls-1" d="M203.17,602.78l-3.57-.46c-.74-.1-.99-1.96-.88-2.73s1.81-1.66,3.24-1.64l64.17.79c1.25.02,1.62,2.83.99,3.12-3.46,1.59-16.89,1.04-20.93,13.38l-26.13,79.8c-3.44,10.49-6.61,19.97-8.67,30.84-.5,2.65,2.93,5.65,5.62,5.71,25.09.6,47.87-10.14,63.53-29.57,1.7-2.11,4.01-3.22,6.87-1.87l-17.1,39.48-62,.62-51.25.11c-1.51-7.58,16,0,21.26-15.81l9.16-27.54,25.06-81.42c.83-2.7.17-6.98-.86-8.86-1.32-2.4-5.07-3.52-8.52-3.96Z" />
  <path d="M356.75,731.66c-16.97-6.21-11.81-33.33-8.53-46.42,6.22-24.82,14.22-52.63,32.47-71.18,7.91-8.04,18.55-12.72,29.67-9.3s12.53,21.19,11.6,30.58c-2.49,25.12-10.45,49.01-23.12,70.72-8.24,14.12-23.91,32.24-42.08,25.59Z" />
  </svg>