<?xml version="1.0" encoding="UTF-8"?>
<svg id="Layer_1" data-name="Layer 1" xmlns="http://www.w3.org/2000/svg" viewBox="0 0 1028.16 1370.88">
  <defs>
    <style>
      .cls-1 {
        fill: #fff;
      }
    </style>
  </defs>
  <path d="M.48,0h1027.68v1370.88H0V0h.48ZM123.09,481.84l-62.46,57.78-13.6,12.49c-6.69,6.15-12.82,12.45-19.41,19.62l78.85-.78-.55,9.91-.78,20.61c-.29,7.6.59,14.91-.46,22.63l-.9,6.67-.26,31.38-.61,12.98-.25,48.7.02,7.67.26,56.67.79,14.38c.27,4.93.31,9.56.62,14.4l.98,15.32.92,15.42c.65,10.89.76,21.75.05,32.65l-.89,13.48-1.03,13.39c-.4,5.16-.64,9.92-.67,15.11l26.97,1.78,35.1.86c29.53.72,58.59.86,88.11.03l33.7-.95,33.59-.96,35.4-1.06,45.7-.7,27.69-.15,26.04-.03,64.38.45,156.3.09,19.3.86c5.15.23,10.15.53,15.33.6l54.06.77,33.4.7c6.35.13,13.19.81,18.85.7l.86-19.06.92-14.42.78-55.18.84-22.55,2.06-23.58.93-25.02.88-26.17.63-11.72,1.57-18.31.43-64.83c.63-4.7,1.44-9.41,1.46-14.02l.29-60.27c26.71-.57,52.12.5,79.4,1.34l-40.3-40.02-11.71-10.55-19.58-18.75-15.89-14.9-17.74-16.8-21.57-20.71-48.38-45.59c-10.72-9.23-20.1-18.7-30.22-28.49l-25.91-25.06-56.21,50.58,20.29,23.5,34.61-30.23,34.84,33.35,121.66,115.11-34.11.24-1.18,56.54-.66,21.45c-.65,21.11-1.73,41.46-1.5,62.43.1,9.01-.23,17.5-.64,26.4l-2.72,58.58c-.05,1.02-.64,2.94-1.43,3.17-.59.17-2.34.35-3.12.33l-62.98-1.72c-91.13-2.48-181.56-2.59-272.92-1.7l-86.68.84-52.72.29-107.4,1.7-69.16.47.34-93.97c.02-6.22,1.11-12.26.71-18.49-.86-13.44,1.19-26,1.36-39.41l1.03-79.24-29.8-.52c16.7-17.28,33.75-32.19,51.16-48.11l40.07-36.65,48.45-44.69,19.45-17.11,89.4,81.02,70.8,66.52.33,26.6,69.61.38c.7,0-.59-2.3-1.11-2.8l-68.25-65.1-44.21-42.29-68.25-63.21-50.61-46.66c-7,8.57-14.6,15.46-22.42,22.91l-19.19,18.31-83.02,75.19-18.13,17.17ZM763.68,976.05l-.05,11.16,8.07,2.96c3.39,1.25,2.52,7.65,1.09,10.37-1.71,3.25-5.53,4.37-10.01,3.94-3.35-.32-4.84-3.48-6.7-7.99l-12.02.05c-.58,13.27,10.52,21.44,22.97,21.18,10.48-.22,18.72-5.68,20.64-16.05,1.44-7.77-.77-15.14-7.61-20.18,5.04-3.03,6.2-6.93,6.34-11.87.38-12.93-9.23-22.91-22.23-23.12-5.9-.1-11.24,1.53-14.87,5.86-3.3,3.94-4.93,9.27-4.08,14.91l12.59,1.07c.38-3.88,1.15-6.74,4.05-8.2,2.21-1.11,5.36-.73,7.79,1.08,4.3,3.21,4.22,9.79.38,13.44l-6.34,1.39ZM711.98,669.41c-1.24-.02-2.03,4.14-.9,4.22,4.74.35,8.86,1.63,12.29,4.64.66,3.42.95,7.04-.08,10.3l-13.48,42.51c-11.65,5.66-24.66,3.69-33.78-5.65-5.93-6.07-9.6-14.12-10.45-23.04-3.94-41.07,19.89-95.62,65.73-97.83,10.88-.52,20.85,3.19,26.28,12.51,3.82,6.55,4.7,15.73,5.01,22.91.4.92,2.96,1.89,3.74,1.35.62-.44,1.65-1.92,1.84-2.69l10.28-42.29c-7.32-2.69-6.45,7.45-18.2,3.76-12.74-4-24.99-5.16-38.37-4.23-27.24,1.89-52.35,13.05-70.61,33.35-11.12,12.37-17.18,27.11-18.94,43.67-3.42,32.09,13.33,62.96,46.64,67.97,20.64,3.1,40.79.6,60.62-6.11,1.49-2.15,2.83-5.22,3.66-7.83l14.18-44.18c3.61-11.25,16.06-4.39,13.62-12.44l-59.08-.91ZM486.71,400.44l21.34,23.36,33.24-29.61,37.56,35.93,31.37,28.26,55.08,53.29,33.55,30.87.03,25.89,71.44-.14-52.66-50.38-57.67-54.64-39.62-38.2-40.48-38.24-29.28-28.34-9.33-8.6-22.32,21.25-32.24,29.31ZM698.46,980.55c-9.29,7.15-10.38,18.39-4.12,27.58,4.7,6.91,14.11,9.99,22.3,9.18,8.73-.87,15.98-5.56,18.57-12.9,2.99-8.48.51-16.91-6.51-22.59,2.1-2.83,5.37-6.3,6-9.52,2.84-14.51-8.02-26.63-22.3-26.76-8.78-.08-16.22,4.61-19.25,11.99-3.31,8.07-1.75,16.55,5.32,23.03ZM647.77,1013.57c-.56,1.14,2.07,3.24,3.07,3.21l10.92-.39,17.36-35.65c4.61-9.46,4.61-20.98-2.85-29.02-7.96-8.57-23-9.03-31.54-.9-8.1,7.71-8.12,20.52-2.62,29.42,4.01,6.5,10.28,8.66,17.67,8.89l-12,24.45ZM349.03,399.32l21.58,22.92,32.72-30.01,37.81,35.53,53.43,50.18,68.81,63.44-.35,26.1,70.48.09-36.56-35.56c-12.86-12.51-25.39-24.14-38.84-36.04l-53.52-51.13-64.86-61.77-36.93-35.76-32.75,31.34-21,20.68ZM495.45,738.1c1.11,0,2.94-1.44,3.08-2.38.53-3.66-8.26-.62-12.41-6.16-5.83-7.79,1.22-22.48,4.61-33.5l23.14-75.19,32.05,68.84,21.29,47.79c.42,1.33,2.23,2.71,3.48,2.59.88-.09,1.9-1.63,2.29-2.91l26.58-87.53c3.49-11.5,6.61-22.31,10.78-33.37,7.2-19.09,25.47-10.63,20.83-18.28l-40.56-.31c-1.08,0-2.43.49-2.94.88s-.71,2.73-.1,2.89l2.76.7c3.25.82,7.41,1.95,8.74,4.16,1.57,2.61,2.7,7.09,1.78,10.14l-22.42,73.96-42.26-93.15c-6.94.24-44.89-1.09-47.71,2.45-3.31,4.16,13.39-.61,19.23,12.49l-32.44,104.84c-2.69,8.71-9.76,15.21-18.01,16.77l-4.25.8c-.73.14-.67,2.56-.56,3.56l43.01-.06ZM607.58,944.9l-14.07,26.66c-3.75,7.1-6.96,13.99-10.46,21.54l.63,12.84,27.52.09.56,9.23,11.98.99.57-10.11,6.28.22-.24-13.19-6.2-.77-.25-13.02-12.23-.75-.35,13.37-13.06-.27,7.66-15.26,15.9-30.41c-5.28-.78-9.1-1.01-14.24-1.15ZM624.09,1029.97l6.74-2.39c-2.8-.45-5.42.35-6.74,2.39ZM544.8,993.56l30.07.3-.29-13.6-29.86.06.09,13.24ZM504.23,1015.32c3.8.28,8.19-.3,12.15-.35l17.07-.2-.4-12.37-24.82-.39,20.74-22.78c4.58-5.04,6.18-11.67,4.93-18.36-1.91-10.19-10.04-16.26-20.3-16.29-11.97-.04-21.85,8.81-21.02,21.2l12.2.25c.59-4.79,2.6-7.6,6.03-8.47s7.77.29,9.29,3.16c1.6,3.02,1.33,7.66-1.09,10.37l-27.28,30.53-.15,12.79,12.66.92ZM457.67,960.84l-.99,53.71,13.09-.22,1.24-68.77-13.11-.07-13.72,12.34c-.79,4.18-.66,9.52-.18,14.25l13.68-11.23ZM372.34,741.11c15.89-1.94,29.67-8.51,41.6-18.98,22.52-19.77,42.28-50.86,41.04-81.65-1.06-26.24-22.01-46.07-47.95-45.89-10.97.08-20.74,2.95-30.72,7.3-34.17,14.86-59.29,46.28-64.23,83.37-1.56,11.66.37,22.29,4.93,32.45,10.74,23.94,32.39,26.21,55.33,23.41ZM391.36,1010.85c9.99,8.03,25.47,5.99,33.19-3.41,7.19-8.75,5.35-21.19-2.92-27.87,6.91-5.76,9.03-14.19,6.06-22.33-2.7-7.38-10.15-12.62-18.62-12.79-8.01-.16-14.91,3.2-18.76,9.12-4.98,7.67-5.58,20.54,3.2,25.28-10.5,7.36-12.9,23.37-2.15,32.01ZM336.51,1002.02c-.3,5.88-2.75,9.43-7.6,13.52,2.84,3.51,5.07,6.08,8.42,9.43,5.18-5.19,11.38-9.85,11.8-17.3l2.86-50.35c.28-4.9-1.27-10.18-4.32-13.77l-5.63-6.63-9.72,9.58c5.14,4.37,6.58,8.57,6.28,14.51l-2.09,41.02ZM274.86,995.27c-1.77,3.26.14,10.01-.07,12.11l27.5-.45.12,9.64,12.29-.11,1.17-8.79,5.87-1.5.04-12.09-5.8-.5.04-12.58-12.46.17-.54,12.56-13.46.32,25.59-45.99-14.51-.4-25.79,47.61ZM203.17,602.78c3.45.44,7.19,1.56,8.52,3.96,1.04,1.88,1.7,6.15.86,8.86l-25.06,81.42-9.16,27.54c-5.26,15.81-22.77,8.22-21.26,15.81l51.25-.11,62-.62,17.1-39.48c-2.86-1.35-5.17-.24-6.87,1.87-15.66,19.43-38.45,30.17-63.53,29.57-2.69-.06-6.12-3.06-5.62-5.71,2.06-10.88,5.23-20.35,8.67-30.84l26.13-79.8c4.04-12.34,17.47-11.79,20.93-13.38.63-.29.27-3.1-.99-3.12l-64.17-.79c-1.43-.02-3.14.89-3.24,1.64s.14,2.64.88,2.73l3.57.46ZM242.28,993.55l-.46,24.93,13.42-.13.56-22.04,2.12-47.24c-4.1-.21-10.23-1.67-13.27.14-12.32,10.51-17.17,9.97-14.72,26.33l13.68-10.91-1.32,28.91ZM171.04,1003.77c2.1,10.47,12.22,15.14,21.89,15.08,9.29-.06,17.65-4.43,20.63-12.81s.86-16.82-6.12-22.61c5.48-4.17,8.01-9.49,8.14-15.53s-2.05-11.88-7.32-15.64c-6.57-4.68-14.5-5.54-21.87-2.36-6.57,2.84-11.91,8.8-12.74,16.8-.65,6.36,1.16,11.78,6.13,15.8-7.54,4.92-10.53,12.44-8.75,21.28ZM151.3,1025.83l9.41-7.98c-3.98-4.14-6.63-8.26-6.2-13.7l3.33-42.66c.42-5.37,3.79-9.17,7.73-12.8l-8.06-9.15c-12.75,10.52-12.81,12.65-13.81,28.1l-.88,13.55c-1.22,18.79-6.57,34.48,8.48,44.65Z"/>
  <path class="cls-1" d="M123.09,481.84l18.13-17.17,83.02-75.19,19.19-18.31c7.81-7.45,15.42-14.34,22.42-22.91l50.61,46.66,68.25,63.21,44.21,42.29,68.25,65.1c.52.5,1.81,2.8,1.11,2.8l-69.61-.38-.33-26.6-70.8-66.52-89.4-81.02-19.45,17.11-48.45,44.69-40.07,36.65c-17.41,15.93-34.46,30.84-51.16,48.11l29.8.52-1.03,79.24c-.17,13.41-2.22,25.97-1.36,39.41.4,6.23-.69,12.28-.71,18.49l-.34,93.97,69.16-.47,107.4-1.7,52.72-.29,86.68-.84c91.36-.89,181.79-.78,272.92,1.7l62.98,1.72c.78.02,2.53-.16,3.12-.33.79-.23,1.38-2.15,1.43-3.17l2.72-58.58c.41-8.9.74-17.4.64-26.4-.24-20.98.85-41.32,1.5-62.43l.66-21.45,1.18-56.54,34.11-.24-121.66-115.11-34.84-33.35-34.61,30.23-20.29-23.5,56.21-50.58,25.91,25.06c10.12,9.78,19.5,19.25,30.22,28.49l48.38,45.59,21.57,20.71,17.74,16.8,15.89,14.9,19.58,18.75,11.71,10.55,40.3,40.02c-27.28-.84-52.69-1.91-79.4-1.34l-.29,60.27c-.02,4.61-.83,9.32-1.46,14.02l-.43,64.83-1.57,18.31-.63,11.72-.88,26.17-.93,25.02-2.06,23.58-.84,22.55-.78,55.18-.92,14.42-.86,19.06c-5.66.11-12.5-.57-18.85-.7l-33.4-.7-54.06-.77c-5.19-.07-10.18-.37-15.33-.6l-19.3-.86-156.3-.09-64.38-.45-26.04.03-27.69.15-45.7.7-35.4,1.06-33.59.96-33.7.95c-29.53.84-58.58.69-88.11-.03l-35.1-.86-26.97-1.78c.03-5.19.27-9.96.67-15.11l1.03-13.39.89-13.48c.72-10.9.61-21.75-.05-32.65l-.92-15.42-.98-15.32c-.31-4.84-.35-9.47-.62-14.4l-.79-14.38-.26-56.67-.02-7.67.25-48.7.61-12.98.26-31.38.9-6.67c1.05-7.72.17-15.03.46-22.63l.78-20.61.55-9.91-78.85.78c6.59-7.17,12.72-13.47,19.41-19.62l13.6-12.49,62.46-57.78ZM776.65,825.15c-.05,7.34,7.5,10.27,13.55,9,1.38-1.04,1.56-5.79,0-6.52-1.17-.55-5.03-1.7-5.01-3.2l.31-22.59,6.44-.81c1.44-.18,1.82-5.05.39-5.16l-5.98-.45-.15-10.35-8.53,2.59-.48,8c-2.48.13-4.27.16-5.22.63s-.56,4.13.47,4.29l4.35.67-.15,23.91ZM755.35,802.32c2.28.93,4.73,4.02,4.62,7.1l-.83,24.59c3.35.1,5.64.05,8.36-.39.55-10.55.93-19.78.21-29.77-.3-4.22-4.85-8.05-7.92-8.97-4.14-1.24-7.84-.11-12.22,2.5-.94-3.42-7.12-4.02-9.2-1.52l-1.03,37.33c2.87.29,5.72.38,8.79.32,1.94-7.46-3.37-36.33,9.22-31.19ZM731.91,821.92l-7.92-.24c-2.03,4.85-6.31,5.14-10.21,3.85s-5.73-5.36-4.6-9.64l22.86.59c1.01-5.94,1.09-12.4-2.88-17.39-5.82-7.32-17.84-7.92-24.68-1.6s-5.93,24.05-1.63,29.86,11.99,6.9,18.63,5.6c5.61-1.1,10.02-3.95,10.43-11.01ZM650.54,806.75c.12-4,2.72-6.43,5.75-6.83,2.33-.31,7.09,1.34,7.04,4.56l-.35,26.94,8.87.36.74-24.45c.13-4.13,2.79-6.9,6.6-6.97,3.36-.06,6.54,2.56,6.47,6.54l-.4,25.25,8.93-.05.56-22.7c.12-4.73-.27-10.49-4.21-13.78-6.09-5.09-14.59-3.88-20.43,1.46-5.02-6.31-13.17-6.75-19.28-1.42l-1.08-2.9c-.38-1.03-8.01-1.29-8.3.51l-.43,37.9,8.77.1.75-24.51ZM680.57,891.93l-8.05-.1c-2.05,4.69-6.46,5.24-10.42,3.49-3.08-1.36-4.63-5.75-3.86-9.39l22.97.19c.5-5.95.16-11.41-2.73-15.98-3.61-5.73-10.57-7.2-17.09-6.45s-11.61,5.44-12.25,12.05c-1.09,11.18-1.9,24.23,11.31,26.95,8.7,1.79,20.63-.75,20.12-10.76ZM635.77,889.07c-.34,5.62-3.67,6.52-7.42,6.36-8.1-.34-6.57-14.3-5.74-20.65.43-3.29,4.93-4.55,7.55-4.25,3.29.38,4.76,2.74,6.19,6.39,1.9.46,6.12.48,7.9.03.71-9.12-6.5-13.97-14.52-14.16-4.65-.11-9.02.87-12.19,3.77-6.08,5.58-5.07,18.63-3.72,26.81,1.21,7.35,9.36,9.9,15.71,9.67,8.27-.3,14.99-5.26,14.58-13.93l-8.34-.03ZM635.67,819.34l-8.19.02c-1.86,4.73-5.77,5.19-10.36,3.88-2.76-.79-5.26-5.51-3.66-9.13l22.43-.09c.52-6.21.85-12.63-3.28-17.47-5.74-6.73-17.82-7.03-23.99-.81s-6.88,25.48-.2,31.57c3.22,2.94,8.07,4.33,12.68,4.12,7.33-.34,13.97-3.63,14.57-12.08ZM585.61,902.39l.38-25.84c.06-3.78,3.37-6.57,6.82-6.43,3,.12,5.93,2.8,5.95,6.29l.16,26,8.83.03.15-27.92c.03-5.3-3.29-9.79-7.68-11.18s-9.09-1.06-13.53,2.41c-1.55-3.5-5.56-3.48-9.59-2.35l-.34,38.93,8.86.06ZM588.44,833.57c-3.14,5.05-9.66,3.18-12.1-.68-2.36-.56-5.76-.48-8.49-.14.23,4.34,2.48,7.55,6.36,8.99,6.3,2.33,13.58,2.29,19.31-1.72,3.35-2.34,5.22-7.42,5.29-11.54l.7-36.56-7.9-.24-1.79,2.98c-3.67-3.1-7.91-4.55-12.64-3.02-3.42,1.1-7.25,4.42-8.25,8.9-1.72,7.78-3.01,23.19,6.17,26.38,5.53,1.92,9.65.56,14.32-2.45.16,2.8.21,7.19-.97,9.09ZM552.34,879.53c-4.54.11-8.78,2.86-10.25,6.01-1.72,3.69-2.04,8.75.24,12.33,4.17,6.53,13.43,6.81,19.26,1.85l2.06,2.97,7.57-.46.36-26.73c.1-7.52-5.3-12.72-12.86-12.8-3.91-.04-8.29.31-11.53,2.24-3.51,2.09-4.97,5.46-4.81,9.57l7.52-.17c1.19-4.74,5.43-5.87,8.68-4.74,4.1,1.43,4.68,5.72,3.59,9.71l-9.83.23ZM541.83,808.3c-4.91.22-8.66,4.66-9.48,7.77-1.24,4.71-.52,9.64,3.18,12.57,5.14,4.08,12.26,3.54,17.21-.35l2.04,2.7,7.55-.21.73-27.4c.13-4.99-2.32-9.25-7-10.98-5.35-1.99-11.3-2.08-16.54.55-3.35,1.68-5.79,5.57-5.64,9.37,10.26,4.32,7.74-7.52,16.32-4.2,3.67,1.41,4.52,5.44,3.61,9.66l-11.99.53ZM515.07,876.37c.06-3.76,3.52-6.38,6.7-6.27,2.75.09,5.98,3.05,5.94,6.48l-.28,26.01,8.68-.03.79-26.14c.16-5.31-2.46-10.78-6.39-12.42-5.13-2.15-10.13-1.56-14.54,1.66-1.22-3.38-7.61-3.89-9.5-1.31l-.91,38.57,9.11-.27.39-26.28ZM505.66,830.99l.77-26.03c.11-3.7,3.32-6.08,6.76-5.97,2.61.08,5.78,2.82,5.72,6l-.51,25.84,8.83-.08,1.06-25.41c.15-3.6-.86-8.56-3.42-10.99-5.21-4.94-12.74-3.68-17.48.23-.44-.77-1.71-2.87-2.39-2.83l-7.22.37-1.16,38.95,9.04-.06ZM500.26,890.94l-8.18.1c-1.54,4.75-5.71,5.27-9.25,4.21-3.9-1.17-5.56-4.72-4.57-9.63l22.3-.23c.82-5.66,1.36-12.4-2.77-17.42-6.41-7.79-20.87-7.22-26.17,1.67-3.25,5.45-2.63,12.26-2.71,18.22-.11,8.22,5.14,14.43,13.25,15.3,8.61.92,18.31-2.09,18.11-12.22ZM471.13,808.68c-5.61.21-9.58,4.25-10.62,8.62s-.06,9.58,3.92,12.22c5.12,3.39,11.97,3.07,16.92-.9,0,.03,1.19,2.66,1.89,2.64l7.82-.22.78-26.58c.2-6.78-4.07-11.69-10.92-12.58-8.55-1.11-19.05,1.29-18.89,11.54l7.93.05c1.36-4.86,5.17-5.69,9.18-4.33,3.19,1.08,4.09,5.88,3.04,9.13l-11.04.42ZM449.86,893.12c-.06,7.64,8.73,10.99,15.63,9.3l-.17-7.18c-2.55-.43-4.37-.63-5.24-1.14s-1.2-2.91-1.16-4.05l.71-20.23,7.15-.77.4-5.77-7.42-.14-.47-10.84-8.83,3.19-.76,7.69c-2.29.26-4.82.48-4.77,1.58l.18,4.03c.04.91,2.97.6,4.94.69l-.2,23.64ZM418.78,800.26l9.96,20.19c1.51.92,6.13,1.08,6.97-.51,3.21-6.1,6.42-12.47,10.12-18.38l-.51,29.5,9.81.23.94-51.92-10.26.33-13.22,28.57-13.91-28.72-10.06.41.07,51.34,9.71-.12.39-30.92ZM418.51,902.37l1.03-26.01c.14-3.55,4.6-5.9,7.05-5.63,3.97.45,5.72,3.72,5.61,7.58l-.68,24.23,9.2-.02.81-27.04c.16-5.24-3.25-10.07-7.04-11.55-5.16-2-9.92-1.09-14.13,2.22l-1.88-3.07-7.74.58-1.16,38.78,8.93-.08ZM396.31,857.68l8.56-.24.07-6.86-9.39.14c-.07,2.29.04,5.42.76,6.97ZM394.44,902.57l9.07-.16,1.02-38.87-8.78.47-1.31,38.57ZM369.98,831.15c1.2,3.65-3.77,6.02-7.56,4.78l.18,7.15c6.15,1.99,12.61-.77,14.77-6.96l15.03-42.94-9.15-.08-8.53,24.69-7.44-24.32c-2.58-.22-5.42-.17-9.66.17l12.37,37.5ZM368.07,880.65c-4.13.2-8.26,3.75-9.36,6.46-1.5,3.7-1.64,8.92.84,12.09,4.5,5.74,13.3,6.09,19.37,1.3,1.12,3.52,7.69,3.68,9.52,1.11l.96-24.13c.35-8.72-5.31-14.28-14.17-14.33-7.2-.04-15.01,3.05-15.62,11.92,1.93.22,5.56.31,7.72.19,1.37-4.48,5.28-5.86,8.81-4.83,4.12,1.21,4.86,6.32,3.01,9.69l-11.08.52ZM320.66,832.76c.2-9.86.39-18.14,1.24-27.1.5-5.24,6.96-4.81,10.22-5.07l6.96-.56.57,19.85c.13,4.43,1.2,8.53,4.6,10.6s7.43,2.26,11.56,1.39l-.17-6.92c-2.64-.53-4.62-.63-5.45-1.52-.69-.74-1.23-3.37-1.23-4.39l-.02-19.55,7.12-.35.68-5.55-7.23-.5-.99-10.38-8.8,3.25-.38,7.65c-6.55,1.14-10.74-4.76-17.84,3.59l-1.32-3.91-8.12.64-.13,39.04,8.72-.21ZM316.14,873.19l9.95,20.93,6.62-.63,10.85-20.26-.61,30.31,9.6-.03,1.17-28.34.69-23.72-10.46.21-14.01,29.41-13.7-28.53-9.9.06-.97,51.68c3.1,1.04,7.32,1.26,9.65-.8.07-10.25-.38-19.72,1.11-30.28ZM306.34,821.32h-8.04c-2.04,3.54-4.66,5.31-8.72,4.78-1.92-.25-4.72-1.6-5.46-2.97-.91-1.69-1.06-4.75-.54-6.73l23.28-.46c.13-3.84.1-7.22-.46-10.5-1.37-8.06-7.87-12.15-15.61-12.13-8.45.02-15.66,5.26-16.15,14.29-.57,10.38-1.98,23.86,11.47,25.83,8.48,1.24,20.15-.92,20.24-12.09ZM256.6,876.91c-9.55,7.06-13.2,19.43-6.52,26.38,6.13,6.38,17.33,3.75,23.92-2.22,2.9,2.94,7,6.34,11.91,3.75l-.14-7.07c-2.51.61-7.05-2.39-5.43-4.66l5.52-7.74-5.59-4.39-5.57,6.19-6.72-9c5.4-5.39,11.48-10.86,8.15-18.85-1.21-2.91-4.22-5.3-7.77-6.31-6.41-1.81-13.42.73-16.14,6.86s.06,11.81,4.39,17.05ZM237.17,846.04l9.24-.22.57-15.14c5.64,3.75,9.2,4.78,14.49,2.51,9.69-4.16,9.03-20.19,7.58-29.02-.8-4.84-4.82-8.14-8.35-9.38-4.95-1.74-9.19-.41-12.82,3.36-1.33-1.89-2.39-3.68-3.6-3.51l-5.72.78-.41,25.34-.98,25.27ZM203.12,828.3c3.92,6.26,10.75,7.45,17.31,6.2,14.26-2.72,13.29-16.24,12.52-26.81-.62-8.45-7.17-12.98-14.9-12.97-10.32.01-17.23,7.31-16.82,17.49.2,5.17-1.13,11.26,1.89,16.08ZM178.75,835.17l8.45-.12.22-23.79c.02-2.57,1.84-6.46,3.76-7.45,2.08-1.08,5.51-1.22,8.76-1.43.87-1.11.92-5.84.09-7.49-4.44-.62-7.96,1.05-10.8,3.99l-2.05-3.13-7.51.3-.91,39.11ZM139.58,834.75l9.2.22-.95-19,12.12-.45c9.8-.36,15.94-7.96,15.83-17.32-.1-8.51-7.53-15.15-16.68-15.24l-19.91-.19c-1.46,16.86-1.33,34.69.39,51.98Z"/>
  <polygon class="cls-1" points="486.71 400.44 518.95 371.13 541.27 349.88 550.6 358.48 579.89 386.82 620.36 425.06 659.99 463.26 717.65 517.9 770.31 568.29 698.87 568.42 698.84 542.53 665.29 511.66 610.21 458.37 578.85 430.11 541.29 394.19 508.05 423.79 486.71 400.44"/>
  <path class="cls-1" d="M349.03,399.32l21-20.68,32.75-31.34,36.93,35.76,64.86,61.77,53.52,51.13c13.45,11.91,25.98,23.53,38.84,36.04l36.56,35.56-70.48-.09.35-26.1-68.81-63.44-53.43-50.18-37.81-35.53-32.72,30.01-21.58-22.92Z"/>
  <path class="cls-1" d="M372.34,741.11c-22.94,2.8-44.59.53-55.33-23.41-4.56-10.17-6.49-20.8-4.93-32.45,4.95-37.09,30.07-68.51,64.23-83.37,9.98-4.34,19.75-7.22,30.72-7.3,25.94-.18,46.9,19.65,47.95,45.89,1.24,30.79-18.52,61.89-41.04,81.65-11.93,10.47-25.71,17.04-41.6,18.98ZM356.75,731.66c18.16,6.65,33.84-11.47,42.08-25.59,12.67-21.71,20.63-45.6,23.12-70.72.93-9.39-.38-27.13-11.6-30.58s-21.75,1.25-29.67,9.3c-18.25,18.55-26.24,46.36-32.47,71.18-3.28,13.08-8.44,40.21,8.53,46.42Z"/>
  <path class="cls-1" d="M711.98,669.41l59.08.91c2.44,8.05-10,1.18-13.62,12.44l-14.18,44.18c-.84,2.61-2.17,5.69-3.66,7.83-19.84,6.71-39.98,9.22-60.62,6.11-33.31-5.01-50.06-35.88-46.64-67.97,1.76-16.56,7.82-31.3,18.94-43.67,18.25-20.3,43.37-31.46,70.61-33.35,13.38-.93,25.63.23,38.37,4.23,11.75,3.69,10.89-6.45,18.2-3.76l-10.28,42.29c-.19.77-1.22,2.25-1.84,2.69-.78.54-3.34-.43-3.74-1.35-.31-7.18-1.19-16.36-5.01-22.91-5.43-9.32-15.41-13.03-26.28-12.51-45.85,2.21-69.67,56.76-65.73,97.83.86,8.92,4.52,16.96,10.45,23.04,9.12,9.34,22.13,11.31,33.78,5.65l13.48-42.51c1.03-3.26.74-6.88.08-10.3-3.43-3.01-7.56-4.29-12.29-4.64-1.13-.08-.34-4.24.9-4.22Z"/>
  <path class="cls-1" d="M495.45,738.1l-43.01.06c-.12-1-.17-3.42.56-3.56l4.25-.8c8.26-1.56,15.32-8.07,18.01-16.77l32.44-104.84c-5.85-13.1-22.54-8.32-19.23-12.49,2.82-3.54,40.77-2.22,47.71-2.45l42.26,93.15,22.42-73.96c.92-3.05-.21-7.53-1.78-10.14-1.33-2.21-5.49-3.34-8.74-4.16l-2.76-.7c-.61-.15-.4-2.5.1-2.89s1.86-.89,2.94-.88l40.56.31c4.63,7.65-13.64-.81-20.83,18.28-4.17,11.06-7.29,21.88-10.78,33.37l-26.58,87.53c-.39,1.28-1.42,2.83-2.29,2.91-1.26.12-3.06-1.26-3.48-2.59l-21.29-47.79-32.05-68.84-23.14,75.19c-3.39,11.02-10.43,25.71-4.61,33.5,4.15,5.55,12.94,2.5,12.41,6.16-.14.94-1.97,2.38-3.08,2.38Z"/>
  <path class="cls-1" d="M203.17,602.78l-3.57-.46c-.74-.1-.99-1.96-.88-2.73s1.81-1.66,3.24-1.64l64.17.79c1.25.02,1.62,2.83.99,3.12-3.46,1.59-16.89,1.04-20.93,13.38l-26.13,79.8c-3.44,10.49-6.61,19.97-8.67,30.84-.5,2.65,2.93,5.65,5.62,5.71,25.09.6,47.87-10.14,63.53-29.57,1.7-2.11,4.01-3.22,6.87-1.87l-17.1,39.48-62,.62-51.25.11c-1.51-7.58,16,0,21.26-15.81l9.16-27.54,25.06-81.42c.83-2.7.17-6.98-.86-8.86-1.32-2.4-5.07-3.52-8.52-3.96Z"/>
  <path class="cls-1" d="M698.46,980.55c-7.07-6.47-8.64-14.96-5.32-23.03,3.03-7.38,10.47-12.07,19.25-11.99,14.29.13,25.15,12.25,22.3,26.76-.63,3.22-3.9,6.7-6,9.52,7.02,5.68,9.5,14.11,6.51,22.59-2.59,7.35-9.84,12.04-18.57,12.9-8.19.82-17.6-2.27-22.3-9.18-6.26-9.19-5.17-20.43,4.12-27.58ZM721.36,964.84c-1.32-5.08-6.19-6.84-10.29-5.65s-6.58,5.45-5.47,9.94c1.02,4.13,5.32,6.57,9.96,5.59,3.65-.77,7.08-4.97,5.8-9.87ZM703.96,996.54c.6,6.89,7.19,8.95,12.26,7.22s7.78-7.32,4.9-12.44c-2.06-3.65-6.66-4.15-10.69-3.2-2.79.65-6.82,4.42-6.47,8.42Z"/>
  <path class="cls-1" d="M391.36,1010.85c-10.75-8.64-8.35-24.64,2.15-32.01-8.78-4.74-8.19-17.61-3.2-25.28,3.85-5.92,10.75-9.28,18.76-9.12,8.47.17,15.92,5.41,18.62,12.79,2.98,8.14.86,16.57-6.06,22.33,8.28,6.69,10.11,19.12,2.92,27.87-7.72,9.4-23.2,11.44-33.19,3.41ZM414.94,961.05c-2.39-4.43-8.01-4.83-11.23-2.73-3.76,2.45-4.8,7.48-2.73,11.21s7.08,4.91,10.63,3.08c3.96-2.04,5.73-7.12,3.34-11.56ZM398.04,997.56c1.53,4.69,6.21,6.25,10.34,5.58,3.32-.54,6.94-3.6,7.24-7.6.49-6.39-4.25-10.46-10.01-9.77-5.05.61-9.58,5.64-7.58,11.79Z"/>
  <path class="cls-1" d="M171.04,1003.77c-1.78-8.85,1.21-16.36,8.75-21.28-4.97-4.02-6.79-9.44-6.13-15.8.82-7.99,6.17-13.96,12.74-16.8,7.36-3.18,15.3-2.32,21.87,2.36,5.27,3.76,7.45,9.61,7.32,15.64s-2.66,11.36-8.14,15.53c6.97,5.79,9.01,14.47,6.12,22.61s-11.34,12.75-20.63,12.81c-9.67.06-19.79-4.6-21.89-15.08ZM187.24,969.92c.55,5.21,4.5,7.7,8.64,6.98,3.71-.65,6.69-4,6.66-8.15-.03-4.61-4-8.3-7.79-8.11-4.75.24-8.05,4.09-7.51,9.28ZM187.67,1005.12c3.37,2.57,7.46,2.39,10.58,0,2.3-1.77,3.69-5.49,2.68-8.81-1.23-4.04-4.33-6.62-7.57-6.8-4.17-.23-7.67,1.83-8.77,4.91-1.44,4.03-.47,8.01,3.07,10.71Z"/>
  <path class="cls-1" d="M647.77,1013.57l12-24.45c-7.39-.23-13.66-2.39-17.67-8.89-5.49-8.9-5.48-21.71,2.62-29.42,8.54-8.13,23.58-7.67,31.54.9,7.46,8.04,7.46,19.56,2.85,29.02l-17.36,35.65-10.92.39c-1.01.04-3.63-2.06-3.07-3.21ZM667.81,971.37c.92-2.64.86-7.49-.34-9.51-2.51-4.2-6.85-4.4-10.44-3.02-3.33,1.28-5.23,4.85-5.27,8.78-.05,4.54,2.46,8.33,6.44,8.96,3.63.58,7.98-.54,9.61-5.22Z"/>
  <path class="cls-1" d="M763.68,976.05l6.34-1.39c3.84-3.65,3.92-10.23-.38-13.44-2.42-1.81-5.58-2.19-7.79-1.08-2.9,1.46-3.67,4.31-4.05,8.2l-12.59-1.07c-.85-5.64.79-10.97,4.08-14.91,3.63-4.33,8.97-5.96,14.87-5.86,13,.21,22.6,10.19,22.23,23.12-.14,4.93-1.3,8.84-6.34,11.87,6.84,5.04,9.06,12.41,7.61,20.18-1.93,10.38-10.16,15.84-20.64,16.05-12.45.26-23.55-7.91-22.97-21.18l12.02-.05c1.86,4.5,3.35,7.66,6.7,7.99,4.49.43,8.3-.68,10.01-3.94,1.43-2.72,2.3-9.13-1.09-10.37l-8.07-2.96.05-11.16Z"/>
  <path class="cls-1" d="M504.23,1015.32l-12.66-.92.15-12.79,27.28-30.53c2.42-2.71,2.7-7.35,1.09-10.37s-5.8-4.04-9.29-3.16-5.43,3.68-6.03,8.47l-12.2-.25c-.84-12.39,9.04-21.23,21.02-21.2,10.26.03,18.38,6.1,20.3,16.29,1.26,6.69-.34,13.32-4.93,18.36l-20.74,22.78,24.82.39.4,12.37-17.07.2c-3.95.05-8.35.63-12.15.35Z"/>
  <path class="cls-1" d="M607.58,944.9c5.14.15,8.96.37,14.24,1.15l-15.9,30.41-7.66,15.26,13.06.27.35-13.37,12.23.75.25,13.02,6.2.77.24,13.19-6.28-.22-.57,10.11-11.98-.99-.56-9.23-27.52-.09-.63-12.84c3.5-7.55,6.71-14.44,10.46-21.54l14.07-26.66Z"/>
  <path class="cls-1" d="M274.86,995.27l25.79-47.61,14.51.4-25.59,45.99,13.46-.32.54-12.56,12.46-.17-.04,12.58,5.8.5-.04,12.09-5.87,1.5-1.17,8.79-12.29.11-.12-9.64-27.5.45c.21-2.1-1.7-8.84.07-12.11Z"/>
  <path class="cls-1" d="M242.28,993.55l1.32-28.91-13.68,10.91c-2.45-16.36,2.4-15.82,14.72-26.33,3.04-1.81,9.17-.35,13.27-.14l-2.12,47.24-.56,22.04-13.42.13.46-24.93Z"/>
  <path class="cls-1" d="M151.3,1025.83c-15.05-10.16-9.71-25.86-8.48-44.65l.88-13.55c1.01-15.45,1.06-17.58,13.81-28.1l8.06,9.15c-3.95,3.63-7.31,7.43-7.73,12.8l-3.33,42.66c-.42,5.44,2.22,9.56,6.2,13.7l-9.41,7.98Z"/>
  <path class="cls-1" d="M336.51,1002.02l2.09-41.02c.3-5.93-1.15-10.13-6.28-14.51l9.72-9.58,5.63,6.63c3.05,3.59,4.6,8.87,4.32,13.77l-2.86,50.35c-.42,7.45-6.62,12.11-11.8,17.3-3.35-3.35-5.58-5.92-8.42-9.43,4.85-4.1,7.3-7.64,7.6-13.52Z"/>
  <path class="cls-1" d="M457.67,960.84l-13.68,11.23c-.48-4.73-.61-10.07.18-14.25l13.72-12.34,13.11.07-1.24,68.77-13.09.22.99-53.71Z"/>
  <polygon class="cls-1" points="544.8 993.56 544.71 980.32 574.57 980.26 574.86 993.86 544.8 993.56"/>
  <path class="cls-1" d="M624.09,1029.97c1.32-2.04,3.94-2.85,6.74-2.39l-6.74,2.39Z"/>
  <path d="M316.14,873.19c-1.49,10.56-1.04,20.03-1.11,30.28-2.34,2.06-6.56,1.84-9.65.8l.97-51.68,9.9-.06,13.7,28.53,14.01-29.41,10.46-.21-.69,23.72-1.17,28.34-9.6.03.61-30.31-10.85,20.26-6.62.63-9.95-20.93Z"/>
  <path d="M418.78,800.26l-.39,30.92-9.71.12-.07-51.34,10.06-.41,13.91,28.72,13.22-28.57,10.26-.33-.94,51.92-9.81-.23.51-29.5c-3.7,5.91-6.91,12.28-10.12,18.38-.84,1.59-5.46,1.43-6.97.51l-9.96-20.19Z"/>
  <path d="M650.54,806.75l-.75,24.51-8.77-.1.43-37.9c.29-1.8,7.91-1.54,8.3-.51l1.08,2.9c6.12-5.33,14.26-4.9,19.28,1.42,5.84-5.34,14.35-6.55,20.43-1.46,3.94,3.29,4.33,9.05,4.21,13.78l-.56,22.7-8.93.05.4-25.25c.06-3.98-3.11-6.6-6.47-6.54-3.81.07-6.47,2.84-6.6,6.97l-.74,24.45-8.87-.36.35-26.94c.04-3.22-4.72-4.88-7.04-4.56-3.03.41-5.63,2.84-5.75,6.83Z"/>
  <path d="M256.6,876.91c-4.33-5.24-7.02-11.13-4.39-17.05s9.74-8.67,16.14-6.86c3.55,1,6.55,3.39,7.77,6.31,3.33,7.99-2.75,13.45-8.15,18.85l6.72,9,5.57-6.19,5.59,4.39-5.52,7.74c-1.62,2.27,2.92,5.26,5.43,4.66l.14,7.07c-4.92,2.58-9.01-.82-11.91-3.75-6.59,5.97-17.79,8.61-23.92,2.22-6.68-6.95-3.03-19.32,6.52-26.38ZM263.3,871.64c2.76-2.23,4.64-4.21,5.23-6.96s-1.85-5.49-4.15-5.52c-1.79-.02-4.72,2.02-4.91,4.32-.25,2.98,1.61,5.72,3.83,8.17ZM257.88,898.36c4.43,2.64,8.96-.8,11.28-4.42l-7.59-10.18c-2.45.95-4.94,3.97-5.84,6.25-1,2.53-.46,6.8,2.15,8.34Z"/>
  <path d="M588.44,833.57c1.18-1.9,1.13-6.3.97-9.09-4.66,3.01-8.79,4.37-14.32,2.45-9.18-3.18-7.9-18.59-6.17-26.38.99-4.49,4.83-7.8,8.25-8.9,4.74-1.52,8.97-.07,12.64,3.02l1.79-2.98,7.9.24-.7,36.56c-.08,4.11-1.95,9.19-5.29,11.54-5.72,4.01-13.01,4.05-19.31,1.72-3.88-1.43-6.13-4.64-6.36-8.99,2.74-.34,6.13-.42,8.49.14,2.44,3.86,8.96,5.73,12.1.68ZM578.05,817.36c.93,2.67,5.5,3.13,7.69,2.34,1.8-.64,3.94-3.38,4.18-5.81.56-5.77,1.38-14.06-5.96-14.87-7.87-.87-8.08,12.08-5.9,18.33Z"/>
  <path d="M320.66,832.76l-8.72.21.13-39.04,8.12-.64,1.32,3.91c7.1-8.35,11.29-2.45,17.84-3.59l.38-7.65,8.8-3.25.99,10.38,7.23.5-.68,5.55-7.12.35.02,19.55c0,1.02.54,3.65,1.23,4.39.83.89,2.81.99,5.45,1.52l.17,6.92c-4.13.87-8.21.65-11.56-1.39s-4.47-6.17-4.6-10.6l-.57-19.85-6.96.56c-3.25.26-9.72-.18-10.22,5.07-.85,8.96-1.04,17.24-1.24,27.1Z"/>
  <path d="M139.58,834.75c-1.72-17.29-1.85-35.13-.39-51.98l19.91.19c9.15.09,16.58,6.73,16.68,15.24.11,9.36-6.03,16.96-15.83,17.32l-12.12.45.95,19-9.2-.22ZM147.59,807.33l10.89-.16c3.7-.05,7.19-3.17,7.58-6.17.44-3.42-.36-8.18-4.39-9.15-4.31-1.04-9.37-.7-13.68-.18l-.39,15.66Z"/>
  <path d="M237.17,846.04l.98-25.27.41-25.34,5.72-.78c1.21-.16,2.27,1.62,3.6,3.51,3.62-3.77,7.87-5.11,12.82-3.36,3.53,1.24,7.55,4.55,8.35,9.38,1.45,8.83,2.11,24.86-7.58,29.02-5.29,2.27-8.84,1.23-14.49-2.51l-.57,15.14-9.24.22ZM247.01,820.58c.21,3.21,3.39,5.68,6.07,6.02,2.3.29,6.34-1.24,6.9-3.93,1.19-5.77,1.27-11.27.02-16.96-.61-2.79-5.08-4.13-7.35-3.6-7.21,1.69-6.09,11.68-5.64,18.47Z"/>
  <path d="M306.34,821.32c-.09,11.17-11.76,13.33-20.24,12.09-13.45-1.96-12.03-15.45-11.47-25.83.49-9.03,7.71-14.27,16.15-14.29,7.73-.02,14.23,4.07,15.61,12.13.56,3.29.59,6.66.46,10.5l-23.28.46c-.52,1.99-.37,5.04.54,6.73.74,1.38,3.55,2.72,5.46,2.97,4.06.53,6.67-1.24,8.72-4.77h8.04ZM297.47,810.05c.19-2.11-.12-5.27-1.06-6.74-1.57-2.46-8.85-3.62-12.04.96-.99,1.43-1.3,4.57-.74,6.09l13.83-.31Z"/>
  <path d="M500.26,890.94c.2,10.13-9.5,13.14-18.11,12.22-8.11-.87-13.36-7.08-13.25-15.3.08-5.96-.53-12.77,2.71-18.22,5.3-8.9,19.77-9.46,26.17-1.67,4.12,5.01,3.59,11.75,2.77,17.42l-22.3.23c-1,4.9.67,8.46,4.57,9.63,3.54,1.06,7.71.55,9.25-4.21l8.18-.1ZM489.87,879.65c.58,0,2.31-1.45,2.32-1.95.1-3.37-3.05-8.47-7.92-7.4-4.26.94-7.31,4.56-5.57,9.3l11.16.05Z"/>
  <path d="M471.13,808.68l11.04-.42c1.06-3.25.15-8.05-3.04-9.13-4.01-1.36-7.82-.52-9.18,4.33l-7.93-.05c-.15-10.25,10.35-12.65,18.89-11.54,6.85.89,11.12,5.8,10.92,12.58l-.78,26.58-7.82.22c-.7.02-1.88-2.61-1.89-2.64-4.95,3.97-11.8,4.29-16.92.9-3.98-2.64-4.93-7.95-3.92-12.22s5-8.41,10.62-8.62ZM474.34,824.73c2.39.07,5.82-.89,6.71-2.48s1.16-5.04,1.01-7.46c-2.98-.36-5.91-.47-9.4-.17-2.07.18-3.79,3.88-3.6,5.71.23,2.31,2.45,4.32,5.28,4.4Z"/>
  <path d="M368.07,880.65l11.08-.52c1.85-3.37,1.11-8.48-3.01-9.69-3.52-1.03-7.44.35-8.81,4.83-2.16.12-5.79.03-7.72-.19.6-8.87,8.41-11.96,15.62-11.92,8.86.05,14.52,5.61,14.17,14.33l-.96,24.13c-1.83,2.58-8.4,2.41-9.52-1.11-6.07,4.79-14.87,4.44-19.37-1.3-2.48-3.17-2.34-8.39-.84-12.09,1.1-2.72,5.23-6.27,9.36-6.46ZM368.54,896c3.12,1.25,7.21.82,9.19-1.14,1.74-1.72,2.92-5.58,1.74-8.42-4.45-.95-11.85-1.34-13.02,4.18-.28,1.3.7,4.82,2.08,5.38Z"/>
  <path d="M635.67,819.34c-.6,8.46-7.24,11.75-14.57,12.08-4.6.21-9.46-1.19-12.68-4.12-6.68-6.09-6.01-25.3.2-31.57s18.24-5.92,23.99.81c4.13,4.84,3.8,11.26,3.28,17.47l-22.43.09c-1.61,3.62.9,8.34,3.66,9.13,4.59,1.31,8.5.86,10.36-3.88l8.19-.02ZM627.12,808.18c.19-4.26-.7-7.35-3.34-8.53-2.4-1.07-6.18-.8-8.21.78-1.84,1.43-2.46,4.89-2.07,7.61l13.62.15Z"/>
  <path d="M541.83,808.3l11.99-.53c.91-4.22.06-8.25-3.61-9.66-8.59-3.31-6.07,8.52-16.32,4.2-.15-3.81,2.28-7.69,5.64-9.37,5.25-2.63,11.2-2.53,16.54-.55,4.67,1.74,7.13,6,7,10.98l-.73,27.4-7.55.21-2.04-2.7c-4.95,3.89-12.07,4.43-17.21.35-3.69-2.93-4.41-7.86-3.18-12.57.82-3.11,4.57-7.56,9.48-7.77ZM545.53,824.26c2.7.25,6.06-.84,6.99-2.54,1.03-1.85,1.34-5.46.88-7.58-3.27-.22-6.4-.24-9.84.1-1.79.18-3.36,4.22-2.99,5.84.4,1.76,2.75,3.97,4.96,4.18Z"/>
  <path d="M731.91,821.92c-.41,7.06-4.83,9.92-10.43,11.01-6.64,1.3-14.35.2-18.63-5.6s-5.14-23.6,1.63-29.86,18.85-5.72,24.68,1.6c3.97,4.99,3.89,11.45,2.88,17.39l-22.86-.59c-1.13,4.28.62,8.33,4.6,9.64s8.18,1.01,10.21-3.85l7.92.24ZM723.55,810.25c.62-3.39-.53-6.84-3.15-8.42-2.14-1.29-6.2-1.34-8.84.3-1.88,1.16-3.12,5.13-2.3,7.83l14.3.29Z"/>
  <path d="M505.66,830.99l-9.04.06,1.16-38.95,7.22-.37c.68-.03,1.95,2.06,2.39,2.83,4.74-3.91,12.27-5.18,17.48-.23,2.56,2.43,3.57,7.39,3.42,10.99l-1.06,25.41-8.83.08.51-25.84c.06-3.18-3.11-5.92-5.72-6-3.44-.1-6.65,2.27-6.76,5.97l-.77,26.03Z"/>
  <path d="M680.57,891.93c.51,10.01-11.41,12.55-20.12,10.76-13.21-2.72-12.4-15.77-11.31-26.95.65-6.61,5.94-11.33,12.25-12.05s13.48.73,17.09,6.45c2.88,4.57,3.23,10.03,2.73,15.98l-22.97-.19c-.77,3.64.77,8.03,3.86,9.39,3.96,1.75,8.37,1.19,10.42-3.49l8.05.1ZM672.02,880.37c.35-4.97-.94-7.56-4.15-8.98-2.06-.91-5.87-.57-7.92,1.05-1.81,1.43-2.72,5.46-1.38,7.65l13.44.28Z"/>
  <path d="M418.51,902.37l-8.93.08,1.16-38.78,7.74-.58,1.88,3.07c4.2-3.31,8.96-4.22,14.13-2.22,3.79,1.47,7.2,6.3,7.04,11.55l-.81,27.04-9.2.02.68-24.23c.11-3.86-1.64-7.14-5.61-7.58-2.45-.28-6.91,2.08-7.05,5.63l-1.03,26.01Z"/>
  <path d="M552.34,879.53l9.83-.23c1.09-4,.51-8.29-3.59-9.71-3.25-1.13-7.49,0-8.68,4.74l-7.52.17c-.15-4.11,1.3-7.47,4.81-9.57,3.24-1.93,7.62-2.28,11.53-2.24,7.55.08,12.96,5.28,12.86,12.8l-.36,26.73-7.57.46-2.06-2.97c-5.83,4.96-15.09,4.67-19.26-1.85-2.28-3.57-1.97-8.64-.24-12.33,1.47-3.14,5.7-5.9,10.25-6.01ZM550.9,894.61c2.53,1.71,7.99,2.09,10.01-.66,1.62-2.2,1.64-5.72,1.54-8.66l-9.18.12c-1.63.02-3.8,2.83-3.97,4.26-.15,1.25.51,4.2,1.6,4.94Z"/>
  <path d="M203.12,828.3c-3.02-4.82-1.69-10.92-1.89-16.08-.4-10.18,6.51-17.47,16.82-17.49,7.73-.01,14.28,4.51,14.9,12.97.77,10.56,1.74,24.09-12.52,26.81-6.56,1.25-13.39.05-17.31-6.2ZM210.4,822.22c.22,3.99,5.24,5.39,7.76,5.06,3.18-.4,6.1-3.15,6.04-6.83l-.18-10.4c-.07-4.23-2.62-7.68-6.48-7.58-3.58.1-7.42,2.38-7.42,6.74s.02,8.35.27,13.01Z"/>
  <path d="M369.98,831.15l-12.37-37.5c4.24-.34,7.08-.39,9.66-.17l7.44,24.32,8.53-24.69,9.15.08-15.03,42.94c-2.16,6.18-8.63,8.95-14.77,6.96l-.18-7.15c3.79,1.24,8.76-1.13,7.56-4.78Z"/>
  <path d="M515.07,876.37l-.39,26.28-9.11.27.91-38.57c1.89-2.58,8.28-2.06,9.5,1.31,4.41-3.22,9.4-3.81,14.54-1.66,3.93,1.64,6.55,7.11,6.39,12.42l-.79,26.14-8.68.03.28-26.01c.04-3.43-3.19-6.39-5.94-6.48-3.18-.1-6.65,2.51-6.7,6.27Z"/>
  <path d="M585.61,902.39l-8.86-.06.34-38.93c4.03-1.13,8.04-1.15,9.59,2.35,4.44-3.47,9.02-3.84,13.53-2.41s7.71,5.88,7.68,11.18l-.15,27.92-8.83-.03-.16-26c-.02-3.49-2.95-6.17-5.95-6.29-3.45-.14-6.77,2.65-6.82,6.43l-.38,25.84Z"/>
  <path d="M755.35,802.32c-12.59-5.14-7.27,23.73-9.22,31.19-3.08.06-5.92-.04-8.79-.32l1.03-37.33c2.08-2.5,8.26-1.9,9.2,1.52,4.39-2.61,8.08-3.73,12.22-2.5,3.07.92,7.62,4.75,7.92,8.97.72,9.99.33,19.22-.21,29.77-2.72.44-5.01.49-8.36.39l.83-24.59c.1-3.07-2.34-6.16-4.62-7.1Z"/>
  <path d="M635.77,889.07l8.34.03c.41,8.67-6.31,13.64-14.58,13.93-6.35.23-14.5-2.32-15.71-9.67-1.35-8.18-2.36-21.23,3.72-26.81,3.17-2.91,7.54-3.89,12.19-3.77,8.02.19,15.23,5.04,14.52,14.16-1.78.45-6,.43-7.9-.03-1.43-3.65-2.9-6.01-6.19-6.39-2.62-.3-7.12.96-7.55,4.25-.82,6.35-2.36,20.31,5.74,20.65,3.75.16,7.08-.74,7.42-6.36Z"/>
  <path d="M449.86,893.12l.2-23.64c-1.98-.1-4.9.22-4.94-.69l-.18-4.03c-.05-1.11,2.48-1.32,4.77-1.58l.76-7.69,8.83-3.19.47,10.84,7.42.14-.4,5.77-7.15.77-.71,20.23c-.04,1.14.29,3.54,1.16,4.05s2.69.71,5.24,1.14l.17,7.18c-6.89,1.69-15.69-1.66-15.63-9.3Z"/>
  <path d="M776.65,825.15l.15-23.91-4.35-.67c-1.04-.16-1.42-3.82-.47-4.29s2.74-.5,5.22-.63l.48-8,8.53-2.59.15,10.35,5.98.45c1.43.11,1.05,4.97-.39,5.16l-6.44.81-.31,22.59c-.02,1.5,3.83,2.64,5.01,3.2,1.56.74,1.38,5.48,0,6.52-6.05,1.27-13.6-1.66-13.55-9Z"/>
  <path d="M178.75,835.17l.91-39.11,7.51-.3,2.05,3.13c2.84-2.94,6.36-4.61,10.8-3.99.83,1.65.78,6.38-.09,7.49-3.24.2-6.68.35-8.76,1.43-1.92.99-3.73,4.88-3.76,7.45l-.22,23.79-8.45.12Z"/>
  <polygon points="394.44 902.57 395.75 864 404.53 863.54 403.51 902.41 394.44 902.57"/>
  <path d="M396.31,857.68c-.71-1.55-.83-4.67-.76-6.97l9.39-.14-.07,6.86-8.56.24Z"/>
  <path d="M356.75,731.66c-16.97-6.21-11.81-33.33-8.53-46.42,6.22-24.82,14.22-52.63,32.47-71.18,7.91-8.04,18.55-12.72,29.67-9.3s12.53,21.19,11.6,30.58c-2.49,25.12-10.45,49.01-23.12,70.72-8.24,14.12-23.91,32.24-42.08,25.59Z"/>
  <path d="M703.96,996.54c-.35-4.01,3.68-7.77,6.47-8.42,4.03-.94,8.63-.45,10.69,3.2,2.88,5.12,0,10.76-4.9,12.44s-11.66-.32-12.26-7.22Z"/>
  <path d="M721.36,964.84c1.28,4.91-2.15,9.1-5.8,9.87-4.65.98-8.94-1.46-9.96-5.59-1.11-4.49,1.26-8.72,5.47-9.94s8.97.58,10.29,5.65Z"/>
  <path d="M398.04,997.56c-2-6.15,2.52-11.18,7.58-11.79,5.76-.69,10.49,3.38,10.01,9.77-.3,4-3.92,7.06-7.24,7.6-4.14.67-8.82-.89-10.34-5.58Z"/>
  <path d="M414.94,961.05c2.39,4.44.62,9.53-3.34,11.56-3.56,1.83-8.53.71-10.63-3.08s-1.03-8.75,2.73-11.21c3.22-2.1,8.85-1.7,11.23,2.73Z"/>
  <path d="M187.67,1005.12c-3.55-2.71-4.51-6.68-3.07-10.71,1.09-3.08,4.6-5.14,8.77-4.91,3.25.18,6.34,2.77,7.57,6.8,1.01,3.32-.38,7.05-2.68,8.81-3.12,2.39-7.21,2.58-10.58,0Z"/>
  <path d="M187.24,969.92c-.54-5.19,2.76-9.05,7.51-9.28,3.79-.19,7.75,3.5,7.79,8.11.03,4.15-2.95,7.5-6.66,8.15-4.14.73-8.09-1.77-8.64-6.98Z"/>
  <path d="M667.81,971.37c-1.64,4.68-5.98,5.8-9.61,5.22-3.98-.63-6.49-4.42-6.44-8.96.04-3.93,1.94-7.5,5.27-8.78,3.59-1.38,7.92-1.18,10.44,3.02,1.21,2.02,1.27,6.87.34,9.51Z"/>
  <path class="cls-1" d="M257.88,898.36c-2.6-1.55-3.15-5.81-2.15-8.34.9-2.28,3.38-5.31,5.84-6.25l7.59,10.18c-2.32,3.62-6.85,7.06-11.28,4.42Z"/>
  <path class="cls-1" d="M263.3,871.64c-2.22-2.45-4.08-5.19-3.83-8.17.19-2.3,3.12-4.34,4.91-4.32,2.31.03,4.75,2.74,4.15,5.52s-2.47,4.73-5.23,6.96Z"/>
  <path class="cls-1" d="M578.05,817.36c-2.18-6.25-1.97-19.21,5.9-18.33,7.34.81,6.53,9.1,5.96,14.87-.24,2.42-2.38,5.16-4.18,5.81-2.19.79-6.76.32-7.69-2.34Z"/>
  <path class="cls-1" d="M147.59,807.33l.39-15.66c4.31-.52,9.38-.87,13.68.18,4.03.98,4.83,5.73,4.39,9.15-.39,3-3.88,6.12-7.58,6.17l-10.89.16Z"/>
  <path class="cls-1" d="M247.01,820.58c-.45-6.79-1.56-16.78,5.64-18.47,2.27-.53,6.73.81,7.35,3.6,1.25,5.69,1.17,11.19-.02,16.96-.55,2.69-4.6,4.21-6.9,3.93-2.68-.33-5.86-2.8-6.07-6.02Z"/>
  <path class="cls-1" d="M297.47,810.05l-13.83.31c-.56-1.52-.25-4.66.74-6.09,3.19-4.58,10.47-3.42,12.04-.96.94,1.47,1.25,4.63,1.06,6.74Z"/>
  <path class="cls-1" d="M489.87,879.65l-11.16-.05c-1.75-4.73,1.3-8.36,5.57-9.3,4.87-1.07,8.02,4.03,7.92,7.4-.01.5-1.74,1.95-2.32,1.95Z"/>
  <path class="cls-1" d="M474.34,824.73c-2.83-.08-5.05-2.09-5.28-4.4-.18-1.83,1.53-5.53,3.6-5.71,3.49-.3,6.42-.19,9.4.17.14,2.42-.09,5.82-1.01,7.46s-4.32,2.55-6.71,2.48Z"/>
  <path class="cls-1" d="M368.54,896c-1.39-.56-2.36-4.07-2.08-5.38,1.17-5.52,8.57-5.13,13.02-4.18,1.18,2.84,0,6.71-1.74,8.42-1.98,1.96-6.07,2.39-9.19,1.14Z"/>
  <path class="cls-1" d="M627.12,808.18l-13.62-.15c-.39-2.71.22-6.18,2.07-7.61,2.03-1.58,5.81-1.85,8.21-.78,2.64,1.18,3.53,4.27,3.34,8.53Z"/>
  <path class="cls-1" d="M545.53,824.26c-2.21-.21-4.56-2.42-4.96-4.18-.37-1.62,1.2-5.66,2.99-5.84,3.44-.34,6.57-.32,9.84-.1.46,2.11.15,5.72-.88,7.58-.94,1.7-4.3,2.79-6.99,2.54Z"/>
  <path class="cls-1" d="M723.55,810.25l-14.3-.29c-.82-2.7.42-6.67,2.3-7.83,2.64-1.64,6.7-1.59,8.84-.3,2.62,1.58,3.77,5.02,3.15,8.42Z"/>
  <path class="cls-1" d="M672.02,880.37l-13.44-.28c-1.34-2.19-.43-6.21,1.38-7.65,2.05-1.63,5.86-1.96,7.92-1.05,3.2,1.41,4.5,4.01,4.15,8.98Z"/>
  <path class="cls-1" d="M550.9,894.61c-1.09-.74-1.75-3.69-1.6-4.94.17-1.43,2.34-4.24,3.97-4.26l9.18-.12c.11,2.94.08,6.46-1.54,8.66-2.03,2.76-7.49,2.38-10.01.66Z"/>
  <path class="cls-1" d="M210.4,822.22c-.25-4.66-.27-8.82-.27-13.01s3.84-6.65,7.42-6.74c3.86-.1,6.4,3.35,6.48,7.58l.18,10.4c.06,3.69-2.85,6.43-6.04,6.83-2.53.32-7.55-1.07-7.76-5.06Z"/>
</svg>